<mxfile host="65bd71144e">
    <diagram name="Diagrama GSS" id="RDL5GLJZUlBtUXD1OeAd">
        <mxGraphModel dx="1692" dy="1129" grid="1" gridSize="10" guides="1" tooltips="1" connect="1" arrows="1" fold="1" page="1" pageScale="1" pageWidth="827" pageHeight="1169" math="0" shadow="0">
            <root>
                <mxCell id="0" />
                <mxCell id="1" parent="0" />
                <mxCell id="2" style="edgeStyle=orthogonalEdgeStyle;rounded=1;html=1;exitX=0;exitY=1;exitDx=0;exitDy=0;entryX=0.5;entryY=0;entryDx=0;entryDy=0;" edge="1" parent="1" source="7" target="13">
                    <mxGeometry relative="1" as="geometry" />
                </mxCell>
                <mxCell id="3" style="edgeStyle=orthogonalEdgeStyle;rounded=1;html=1;exitX=0.25;exitY=1;exitDx=0;exitDy=0;entryX=0.5;entryY=0;entryDx=0;entryDy=0;" edge="1" parent="1" source="7" target="14">
                    <mxGeometry relative="1" as="geometry" />
                </mxCell>
                <mxCell id="4" style="edgeStyle=orthogonalEdgeStyle;rounded=1;html=1;exitX=0.75;exitY=1;exitDx=0;exitDy=0;entryX=0.5;entryY=0;entryDx=0;entryDy=0;" edge="1" parent="1" source="7" target="15">
                    <mxGeometry relative="1" as="geometry" />
                </mxCell>
                <mxCell id="5" style="edgeStyle=orthogonalEdgeStyle;rounded=1;html=1;exitX=1;exitY=1;exitDx=0;exitDy=0;entryX=0.5;entryY=0;entryDx=0;entryDy=0;" edge="1" parent="1" source="7" target="16">
                    <mxGeometry relative="1" as="geometry" />
                </mxCell>
                <mxCell id="6" style="edgeStyle=orthogonalEdgeStyle;rounded=1;html=1;exitX=1.25;exitY=1;exitDx=0;exitDy=0;entryX=0.5;entryY=0;entryDx=0;entryDy=0;" edge="1" parent="1" source="7" target="17">
                    <mxGeometry relative="1" as="geometry" />
                </mxCell>
                <mxCell id="7" value="Agente de seguros&#10;[Persona]&#10;Intermediario entre aseguradora&#10;y asegurado" style="rounded=1;whiteSpace=wrap;html=1;fillColor=#1F4E79;fontColor=#FFFFFF;" parent="1" vertex="1">
                    <mxGeometry x="180" y="100" width="300" height="100" as="geometry" />
                </mxCell>
                <mxCell id="8" value="Global Surance System (GSS)&#10;[Sistema de Software]&#10;Sistema de gesti贸n de p贸liza de seguro." style="rounded=1;whiteSpace=wrap;html=1;fillColor=#1F4E79;fontColor=#FFFFFF;" parent="1" vertex="1">
                    <mxGeometry x="110" y="320" width="460" height="100" as="geometry" />
                </mxCell>
                <mxCell id="9" style="edgeStyle=orthogonalEdgeStyle;rounded=1;html=1;endArrow=block;" parent="1" source="7" target="8" edge="1">
                    <mxGeometry relative="1" as="geometry">
                        <mxPoint x="150" y="250" as="targetPoint" />
                    </mxGeometry>
                </mxCell>
                <mxCell id="10" style="edgeStyle=orthogonalEdgeStyle;rounded=1;html=1;endArrow=block;" parent="1" source="7" target="8" edge="1">
                    <mxGeometry relative="1" as="geometry">
                        <mxPoint x="250" y="250" as="targetPoint" />
                    </mxGeometry>
                </mxCell>
                <mxCell id="11" style="edgeStyle=orthogonalEdgeStyle;rounded=1;html=1;endArrow=block;" parent="1" source="7" target="8" edge="1">
                    <mxGeometry relative="1" as="geometry">
                        <mxPoint x="350" y="250" as="targetPoint" />
                    </mxGeometry>
                </mxCell>
                <mxCell id="12" style="edgeStyle=orthogonalEdgeStyle;rounded=1;html=1;endArrow=block;" parent="1" source="7" target="8" edge="1">
                    <mxGeometry relative="1" as="geometry">
                        <mxPoint x="450" y="250" as="targetPoint" />
                    </mxGeometry>
                </mxCell>
                <mxCell id="13" value="Gestionar los&#10;clientes&#10;asegurados" style="text;html=1;strokeColor=none;fillColor=none;align=center;" parent="1" vertex="1">
                    <mxGeometry x="100" y="220" width="100" height="60" as="geometry" />
                </mxCell>
                <mxCell id="14" value="Notificar a&#10;los clientes&#10;sus movimientos" style="text;html=1;strokeColor=none;fillColor=none;align=center;" parent="1" vertex="1">
                    <mxGeometry x="210" y="220" width="120" height="60" as="geometry" />
                </mxCell>
                <mxCell id="15" value="Consultar los&#10;Pagos&#10;realizados" style="text;html=1;strokeColor=none;fillColor=none;align=center;" parent="1" vertex="1">
                    <mxGeometry x="350" y="220" width="100" height="60" as="geometry" />
                </mxCell>
                <mxCell id="16" value="Generar las&#10;P贸lizas de seguro" style="text;html=1;strokeColor=none;fillColor=none;align=center;" parent="1" vertex="1">
                    <mxGeometry x="460" y="220" width="120" height="60" as="geometry" />
                </mxCell>
                <mxCell id="17" value="Validar pagos y&#10;enviar p贸liza" style="text;html=1;strokeColor=none;fillColor=none;align=center;" parent="1" vertex="1">
                    <mxGeometry x="580" y="220" width="140" height="60" as="geometry" />
                </mxCell>
                <mxCell id="18" value="" style="ellipse;whiteSpace=wrap;html=1;fillColor=#1F4E79;" parent="1" vertex="1">
                    <mxGeometry x="280" y="30" width="80" height="80" as="geometry" />
                </mxCell>
                <mxCell id="19" style="edgeStyle=orthogonalEdgeStyle;rounded=1;html=1;exitX=0.5;exitY=1;exitDx=0;exitDy=0;entryX=0.067;entryY=0.03;entryDx=0;entryDy=0;entryPerimeter=0;" edge="1" parent="1" source="13" target="8">
                    <mxGeometry relative="1" as="geometry" />
                </mxCell>
                <mxCell id="20" style="edgeStyle=orthogonalEdgeStyle;rounded=1;html=1;exitX=0.5;exitY=1;exitDx=0;exitDy=0;entryX=0.298;entryY=0.03;entryDx=0;entryDy=0;entryPerimeter=0;" edge="1" parent="1" source="14" target="8">
                    <mxGeometry relative="1" as="geometry" />
                </mxCell>
                <mxCell id="21" style="edgeStyle=orthogonalEdgeStyle;rounded=1;html=1;exitX=0.5;exitY=1;exitDx=0;exitDy=0;entryX=0.678;entryY=0;entryDx=0;entryDy=0;entryPerimeter=0;" edge="1" parent="1" source="15" target="8">
                    <mxGeometry relative="1" as="geometry" />
                </mxCell>
                <mxCell id="22" style="edgeStyle=orthogonalEdgeStyle;rounded=1;html=1;exitX=0.5;exitY=1;exitDx=0;exitDy=0;entryX=0.87;entryY=0;entryDx=0;entryDy=0;entryPerimeter=0;" edge="1" parent="1" source="16" target="8">
                    <mxGeometry relative="1" as="geometry" />
                </mxCell>
                <mxCell id="23" style="edgeStyle=orthogonalEdgeStyle;rounded=1;html=1;exitX=0.5;exitY=1;exitDx=0;exitDy=0;entryX=1.05;entryY=0;entryDx=0;entryDy=0;entryPerimeter=0;" edge="1" parent="1" source="17" target="8">
                    <mxGeometry relative="1" as="geometry" />
                </mxCell>
            </root>
        </mxGraphModel>
    </diagram>
</mxfile>